<mxfile host="app.diagrams.net" modified="2024-03-15T03:31:54.589Z" agent="Mozilla/5.0 (Windows NT 10.0; Win64; x64) AppleWebKit/537.36 (KHTML, like Gecko) Chrome/122.0.0.0 Safari/537.36 Edg/122.0.0.0" etag="IozXHj9K_LKnLzaT04y-" version="22.1.18" type="github">
  <diagram id="C5RBs43oDa-KdzZeNtuy" name="Page-1">
    <mxGraphModel dx="1104" dy="609" grid="1" gridSize="10" guides="1" tooltips="1" connect="1" arrows="1" fold="1" page="1" pageScale="1" pageWidth="827" pageHeight="1169" math="0" shadow="0">
      <root>
        <mxCell id="WIyWlLk6GJQsqaUBKTNV-0" />
        <mxCell id="WIyWlLk6GJQsqaUBKTNV-1" parent="WIyWlLk6GJQsqaUBKTNV-0" />
        <mxCell id="-03sk2IG4HcRB7QKTwQ4-4" value="" style="edgeStyle=orthogonalEdgeStyle;rounded=0;orthogonalLoop=1;jettySize=auto;html=1;" edge="1" parent="WIyWlLk6GJQsqaUBKTNV-1" source="WIyWlLk6GJQsqaUBKTNV-3" target="-03sk2IG4HcRB7QKTwQ4-1">
          <mxGeometry relative="1" as="geometry" />
        </mxCell>
        <mxCell id="WIyWlLk6GJQsqaUBKTNV-3" value="Data Engineering" style="rounded=1;whiteSpace=wrap;html=1;fontSize=12;glass=0;strokeWidth=1;shadow=0;" parent="WIyWlLk6GJQsqaUBKTNV-1" vertex="1">
          <mxGeometry x="270" y="290" width="120" height="40" as="geometry" />
        </mxCell>
        <mxCell id="-03sk2IG4HcRB7QKTwQ4-6" value="" style="edgeStyle=orthogonalEdgeStyle;rounded=0;orthogonalLoop=1;jettySize=auto;html=1;" edge="1" parent="WIyWlLk6GJQsqaUBKTNV-1" source="-03sk2IG4HcRB7QKTwQ4-0" target="WIyWlLk6GJQsqaUBKTNV-3">
          <mxGeometry relative="1" as="geometry" />
        </mxCell>
        <mxCell id="-03sk2IG4HcRB7QKTwQ4-25" value="" style="edgeStyle=orthogonalEdgeStyle;rounded=0;orthogonalLoop=1;jettySize=auto;html=1;" edge="1" parent="WIyWlLk6GJQsqaUBKTNV-1" source="-03sk2IG4HcRB7QKTwQ4-0" target="-03sk2IG4HcRB7QKTwQ4-23">
          <mxGeometry relative="1" as="geometry" />
        </mxCell>
        <mxCell id="-03sk2IG4HcRB7QKTwQ4-0" value="Database" style="shape=cylinder3;whiteSpace=wrap;html=1;boundedLbl=1;backgroundOutline=1;size=15;" vertex="1" parent="WIyWlLk6GJQsqaUBKTNV-1">
          <mxGeometry x="180" y="275" width="60" height="70" as="geometry" />
        </mxCell>
        <mxCell id="-03sk2IG4HcRB7QKTwQ4-5" value="" style="edgeStyle=orthogonalEdgeStyle;rounded=0;orthogonalLoop=1;jettySize=auto;html=1;" edge="1" parent="WIyWlLk6GJQsqaUBKTNV-1" source="-03sk2IG4HcRB7QKTwQ4-1" target="-03sk2IG4HcRB7QKTwQ4-2">
          <mxGeometry relative="1" as="geometry" />
        </mxCell>
        <mxCell id="-03sk2IG4HcRB7QKTwQ4-1" value="ML Model Re-training" style="rounded=1;whiteSpace=wrap;html=1;fontSize=12;glass=0;strokeWidth=1;shadow=0;" vertex="1" parent="WIyWlLk6GJQsqaUBKTNV-1">
          <mxGeometry x="414" y="290" width="120" height="40" as="geometry" />
        </mxCell>
        <mxCell id="-03sk2IG4HcRB7QKTwQ4-11" value="" style="edgeStyle=orthogonalEdgeStyle;rounded=0;orthogonalLoop=1;jettySize=auto;html=1;" edge="1" parent="WIyWlLk6GJQsqaUBKTNV-1" source="-03sk2IG4HcRB7QKTwQ4-2" target="-03sk2IG4HcRB7QKTwQ4-10">
          <mxGeometry relative="1" as="geometry" />
        </mxCell>
        <mxCell id="-03sk2IG4HcRB7QKTwQ4-2" value="Model Evaluation" style="rounded=1;whiteSpace=wrap;html=1;fontSize=12;glass=0;strokeWidth=1;shadow=0;" vertex="1" parent="WIyWlLk6GJQsqaUBKTNV-1">
          <mxGeometry x="560" y="290" width="120" height="40" as="geometry" />
        </mxCell>
        <mxCell id="-03sk2IG4HcRB7QKTwQ4-7" value="ML metadata" style="shape=cylinder3;whiteSpace=wrap;html=1;boundedLbl=1;backgroundOutline=1;size=15;" vertex="1" parent="WIyWlLk6GJQsqaUBKTNV-1">
          <mxGeometry x="370" y="360" width="60" height="70" as="geometry" />
        </mxCell>
        <mxCell id="-03sk2IG4HcRB7QKTwQ4-9" value="" style="endArrow=classic;startArrow=classic;html=1;rounded=0;dashed=1;exitX=0.5;exitY=0;exitDx=0;exitDy=0;exitPerimeter=0;strokeWidth=1;" edge="1" parent="WIyWlLk6GJQsqaUBKTNV-1" source="-03sk2IG4HcRB7QKTwQ4-7">
          <mxGeometry width="50" height="50" relative="1" as="geometry">
            <mxPoint x="390" y="340" as="sourcePoint" />
            <mxPoint x="400" y="320" as="targetPoint" />
          </mxGeometry>
        </mxCell>
        <mxCell id="-03sk2IG4HcRB7QKTwQ4-13" value="" style="edgeStyle=orthogonalEdgeStyle;rounded=0;orthogonalLoop=1;jettySize=auto;html=1;" edge="1" parent="WIyWlLk6GJQsqaUBKTNV-1" source="-03sk2IG4HcRB7QKTwQ4-10" target="-03sk2IG4HcRB7QKTwQ4-12">
          <mxGeometry relative="1" as="geometry" />
        </mxCell>
        <mxCell id="-03sk2IG4HcRB7QKTwQ4-10" value="Model Build / Test" style="rounded=1;whiteSpace=wrap;html=1;fontSize=12;glass=0;strokeWidth=1;shadow=0;" vertex="1" parent="WIyWlLk6GJQsqaUBKTNV-1">
          <mxGeometry x="560" y="360" width="120" height="40" as="geometry" />
        </mxCell>
        <mxCell id="-03sk2IG4HcRB7QKTwQ4-15" style="edgeStyle=orthogonalEdgeStyle;rounded=0;orthogonalLoop=1;jettySize=auto;html=1;entryX=1;entryY=0.5;entryDx=0;entryDy=0;exitX=0.5;exitY=1;exitDx=0;exitDy=0;" edge="1" parent="WIyWlLk6GJQsqaUBKTNV-1" source="-03sk2IG4HcRB7QKTwQ4-12" target="-03sk2IG4HcRB7QKTwQ4-14">
          <mxGeometry relative="1" as="geometry" />
        </mxCell>
        <mxCell id="-03sk2IG4HcRB7QKTwQ4-12" value="Model Update" style="rounded=1;whiteSpace=wrap;html=1;fontSize=12;glass=0;strokeWidth=1;shadow=0;" vertex="1" parent="WIyWlLk6GJQsqaUBKTNV-1">
          <mxGeometry x="560" y="430" width="120" height="40" as="geometry" />
        </mxCell>
        <mxCell id="-03sk2IG4HcRB7QKTwQ4-17" value="" style="edgeStyle=orthogonalEdgeStyle;rounded=0;orthogonalLoop=1;jettySize=auto;html=1;" edge="1" parent="WIyWlLk6GJQsqaUBKTNV-1" source="-03sk2IG4HcRB7QKTwQ4-14" target="-03sk2IG4HcRB7QKTwQ4-16">
          <mxGeometry relative="1" as="geometry" />
        </mxCell>
        <mxCell id="-03sk2IG4HcRB7QKTwQ4-14" value="Model Prediction API" style="rounded=1;whiteSpace=wrap;html=1;fontSize=12;glass=0;strokeWidth=1;shadow=0;" vertex="1" parent="WIyWlLk6GJQsqaUBKTNV-1">
          <mxGeometry x="450" y="490" width="120" height="40" as="geometry" />
        </mxCell>
        <mxCell id="-03sk2IG4HcRB7QKTwQ4-20" style="edgeStyle=orthogonalEdgeStyle;rounded=0;orthogonalLoop=1;jettySize=auto;html=1;entryX=0.5;entryY=1;entryDx=0;entryDy=0;" edge="1" parent="WIyWlLk6GJQsqaUBKTNV-1" source="-03sk2IG4HcRB7QKTwQ4-16" target="-03sk2IG4HcRB7QKTwQ4-18">
          <mxGeometry relative="1" as="geometry" />
        </mxCell>
        <mxCell id="-03sk2IG4HcRB7QKTwQ4-16" value="Monitor Performance" style="rounded=1;whiteSpace=wrap;html=1;fontSize=12;glass=0;strokeWidth=1;shadow=0;" vertex="1" parent="WIyWlLk6GJQsqaUBKTNV-1">
          <mxGeometry x="294" y="490" width="120" height="40" as="geometry" />
        </mxCell>
        <mxCell id="-03sk2IG4HcRB7QKTwQ4-21" value="" style="edgeStyle=orthogonalEdgeStyle;rounded=0;orthogonalLoop=1;jettySize=auto;html=1;" edge="1" parent="WIyWlLk6GJQsqaUBKTNV-1" source="-03sk2IG4HcRB7QKTwQ4-18" target="-03sk2IG4HcRB7QKTwQ4-19">
          <mxGeometry relative="1" as="geometry" />
        </mxCell>
        <mxCell id="-03sk2IG4HcRB7QKTwQ4-26" style="edgeStyle=orthogonalEdgeStyle;rounded=0;orthogonalLoop=1;jettySize=auto;html=1;entryX=0;entryY=0.75;entryDx=0;entryDy=0;" edge="1" parent="WIyWlLk6GJQsqaUBKTNV-1" source="-03sk2IG4HcRB7QKTwQ4-18" target="-03sk2IG4HcRB7QKTwQ4-23">
          <mxGeometry relative="1" as="geometry">
            <Array as="points">
              <mxPoint x="130" y="460" />
              <mxPoint x="130" y="240" />
            </Array>
          </mxGeometry>
        </mxCell>
        <mxCell id="-03sk2IG4HcRB7QKTwQ4-18" value="Trigger" style="rounded=1;whiteSpace=wrap;html=1;fontSize=12;glass=0;strokeWidth=1;shadow=0;" vertex="1" parent="WIyWlLk6GJQsqaUBKTNV-1">
          <mxGeometry x="150" y="440" width="120" height="40" as="geometry" />
        </mxCell>
        <mxCell id="-03sk2IG4HcRB7QKTwQ4-22" value="" style="edgeStyle=orthogonalEdgeStyle;rounded=0;orthogonalLoop=1;jettySize=auto;html=1;" edge="1" parent="WIyWlLk6GJQsqaUBKTNV-1" source="-03sk2IG4HcRB7QKTwQ4-19" target="-03sk2IG4HcRB7QKTwQ4-0">
          <mxGeometry relative="1" as="geometry" />
        </mxCell>
        <mxCell id="-03sk2IG4HcRB7QKTwQ4-19" value="Data Feedback / Parser" style="rounded=1;whiteSpace=wrap;html=1;fontSize=12;glass=0;strokeWidth=1;shadow=0;" vertex="1" parent="WIyWlLk6GJQsqaUBKTNV-1">
          <mxGeometry x="150" y="375" width="120" height="40" as="geometry" />
        </mxCell>
        <mxCell id="-03sk2IG4HcRB7QKTwQ4-27" value="" style="edgeStyle=orthogonalEdgeStyle;rounded=0;orthogonalLoop=1;jettySize=auto;html=1;" edge="1" parent="WIyWlLk6GJQsqaUBKTNV-1" source="-03sk2IG4HcRB7QKTwQ4-23" target="-03sk2IG4HcRB7QKTwQ4-24">
          <mxGeometry relative="1" as="geometry" />
        </mxCell>
        <mxCell id="-03sk2IG4HcRB7QKTwQ4-23" value="Data Analysis" style="rounded=1;whiteSpace=wrap;html=1;fontSize=12;glass=0;strokeWidth=1;shadow=0;" vertex="1" parent="WIyWlLk6GJQsqaUBKTNV-1">
          <mxGeometry x="150" y="210" width="120" height="40" as="geometry" />
        </mxCell>
        <mxCell id="-03sk2IG4HcRB7QKTwQ4-36" style="edgeStyle=orthogonalEdgeStyle;rounded=0;orthogonalLoop=1;jettySize=auto;html=1;exitX=0.5;exitY=0;exitDx=0;exitDy=0;entryX=0.5;entryY=1;entryDx=0;entryDy=0;" edge="1" parent="WIyWlLk6GJQsqaUBKTNV-1" source="-03sk2IG4HcRB7QKTwQ4-24" target="-03sk2IG4HcRB7QKTwQ4-34">
          <mxGeometry relative="1" as="geometry" />
        </mxCell>
        <mxCell id="-03sk2IG4HcRB7QKTwQ4-43" style="edgeStyle=orthogonalEdgeStyle;rounded=0;orthogonalLoop=1;jettySize=auto;html=1;entryX=0;entryY=0.5;entryDx=0;entryDy=0;" edge="1" parent="WIyWlLk6GJQsqaUBKTNV-1" source="-03sk2IG4HcRB7QKTwQ4-24" target="-03sk2IG4HcRB7QKTwQ4-35">
          <mxGeometry relative="1" as="geometry" />
        </mxCell>
        <mxCell id="-03sk2IG4HcRB7QKTwQ4-24" value="Model Structure Update" style="rounded=1;whiteSpace=wrap;html=1;fontSize=12;glass=0;strokeWidth=1;shadow=0;" vertex="1" parent="WIyWlLk6GJQsqaUBKTNV-1">
          <mxGeometry x="290" y="210" width="120" height="40" as="geometry" />
        </mxCell>
        <mxCell id="-03sk2IG4HcRB7QKTwQ4-29" value="ML model database" style="shape=cylinder3;whiteSpace=wrap;html=1;boundedLbl=1;backgroundOutline=1;size=15;" vertex="1" parent="WIyWlLk6GJQsqaUBKTNV-1">
          <mxGeometry x="590" y="195" width="60" height="70" as="geometry" />
        </mxCell>
        <mxCell id="-03sk2IG4HcRB7QKTwQ4-31" value="" style="endArrow=classic;startArrow=classic;html=1;rounded=0;dashed=1;exitX=0.5;exitY=0;exitDx=0;exitDy=0;strokeWidth=1;entryX=0.5;entryY=1;entryDx=0;entryDy=0;entryPerimeter=0;" edge="1" parent="WIyWlLk6GJQsqaUBKTNV-1" source="-03sk2IG4HcRB7QKTwQ4-2" target="-03sk2IG4HcRB7QKTwQ4-29">
          <mxGeometry width="50" height="50" relative="1" as="geometry">
            <mxPoint x="546.58" y="307" as="sourcePoint" />
            <mxPoint x="546.58" y="267" as="targetPoint" />
          </mxGeometry>
        </mxCell>
        <mxCell id="-03sk2IG4HcRB7QKTwQ4-42" style="edgeStyle=orthogonalEdgeStyle;rounded=0;orthogonalLoop=1;jettySize=auto;html=1;entryX=0.5;entryY=0;entryDx=0;entryDy=0;" edge="1" parent="WIyWlLk6GJQsqaUBKTNV-1" source="-03sk2IG4HcRB7QKTwQ4-34" target="-03sk2IG4HcRB7QKTwQ4-35">
          <mxGeometry relative="1" as="geometry" />
        </mxCell>
        <mxCell id="-03sk2IG4HcRB7QKTwQ4-44" style="edgeStyle=orthogonalEdgeStyle;rounded=0;orthogonalLoop=1;jettySize=auto;html=1;" edge="1" parent="WIyWlLk6GJQsqaUBKTNV-1" source="-03sk2IG4HcRB7QKTwQ4-34" target="-03sk2IG4HcRB7QKTwQ4-29">
          <mxGeometry relative="1" as="geometry" />
        </mxCell>
        <mxCell id="-03sk2IG4HcRB7QKTwQ4-34" value="Model Evaluate" style="rounded=1;whiteSpace=wrap;html=1;fontSize=12;glass=0;strokeWidth=1;shadow=0;" vertex="1" parent="WIyWlLk6GJQsqaUBKTNV-1">
          <mxGeometry x="290" y="150" width="120" height="40" as="geometry" />
        </mxCell>
        <mxCell id="-03sk2IG4HcRB7QKTwQ4-35" value="Model code CI/CD" style="rounded=1;whiteSpace=wrap;html=1;fontSize=12;glass=0;strokeWidth=1;shadow=0;" vertex="1" parent="WIyWlLk6GJQsqaUBKTNV-1">
          <mxGeometry x="430" y="210" width="120" height="40" as="geometry" />
        </mxCell>
      </root>
    </mxGraphModel>
  </diagram>
</mxfile>
